<svg xmlns="http://www.w3.org/2000/svg" width="1600" height="900" viewBox="0 0 1600 900" role="img" aria-label="Docker Advanced Chapter 7 cover showing container debugging evidence feeding an incident diagnosis."><defs><marker id="a" viewBox="0 0 10 10" refX="8" refY="5" markerWidth="5" markerHeight="5" orient="auto"><path d="M0 0L10 5 0 10z" fill="#2496ed"/></marker><style>.k{font-family:Arial,sans-serif;font-size:22px;font-weight:700;letter-spacing:4px;fill:#2496ed}.t{font-family:Arial,sans-serif;font-size:70px;font-weight:800;fill:#f7f9fb}.s{font-family:Arial,sans-serif;font-size:28px;fill:#aebdcd}.n{font-family:Arial,sans-serif;font-size:21px;font-weight:700;fill:#dce8f5}.d{font-family:Menlo,monospace;font-size:16px;fill:#aebdcd}</style></defs><rect width="1600" height="900" fill="#0d1117"/><path d="M860 0V900" stroke="#263545" stroke-width="2"/><text x="100" y="120" class="k">DOCKER ADVANCED</text><text x="100" y="156" class="k">CHAPTER 07</text><text x="100" y="380" class="t">Debug with</text><text x="100" y="468" class="t">Evidence</text><text x="100" y="570" class="s">Inspect before you change the service.</text><g transform="translate(950 170)"><rect width="580" height="560" rx="24" fill="#12202f" stroke="#263f57" stroke-width="3"/><text x="48" y="58" class="k" font-size="16">INCIDENT INVESTIGATION</text><rect x="52" y="126" width="142" height="70" rx="12" fill="#284966"/><text x="76" y="168" class="n">status</text><rect x="52" y="238" width="142" height="70" rx="12" fill="#284966"/><text x="76" y="280" class="n">logs</text><rect x="52" y="350" width="142" height="70" rx="12" fill="#284966"/><text x="76" y="392" class="n">metrics</text><circle cx="360" cy="273" r="104" fill="#2496ed" opacity=".22" stroke="#2496ed" stroke-width="4"/><text x="304" y="268" class="n">diagnose</text><text x="316" y="298" class="d">next check</text><g fill="none" stroke="#2496ed" stroke-width="3" marker-end="url(#a)"><path d="M194 161H244V222H258"/><path d="M194 273H250"/><path d="M194 385H244V324H258"/></g></g><text x="100" y="820" class="d">devopsvn.tech</text></svg>