<svg xmlns="http://www.w3.org/2000/svg" width="1600" height="900" viewBox="0 0 1600 900" role="img" aria-label="Docker Advanced Chapter 6 cover showing a shared Compose file combined with production policy for an API service."><defs><marker id="a" viewBox="0 0 10 10" refX="8" refY="5" markerWidth="5" markerHeight="5" orient="auto"><path d="M0 0L10 5 0 10z" fill="#2496ed"/></marker><style>.k{font-family:Arial,sans-serif;font-size:22px;font-weight:700;letter-spacing:4px;fill:#2496ed}.t{font-family:Arial,sans-serif;font-size:70px;font-weight:800;fill:#f7f9fb}.s{font-family:Arial,sans-serif;font-size:28px;fill:#aebdcd}.n{font-family:Arial,sans-serif;font-size:21px;font-weight:700;fill:#dce8f5}.d{font-family:Menlo,monospace;font-size:16px;fill:#aebdcd}</style></defs><rect width="1600" height="900" fill="#0d1117"/><path d="M860 0V900" stroke="#263545" stroke-width="2"/><text x="100" y="120" class="k">DOCKER ADVANCED</text><text x="100" y="156" class="k">CHAPTER 06</text><text x="100" y="380" class="t">Production</text><text x="100" y="468" class="t">Compose</text><text x="100" y="570" class="s">Add limits, health checks, and recovery.</text><g transform="translate(960 170)"><rect width="560" height="560" rx="24" fill="#12202f" stroke="#263f57" stroke-width="3"/><text x="48" y="58" class="k" font-size="16">SINGLE HOST DEPLOYMENT</text><rect x="50" y="130" width="178" height="88" rx="14" fill="#284966"/><text x="76" y="168" class="n">compose.yaml</text><text x="76" y="196" class="d">shared services</text><rect x="50" y="310" width="178" height="88" rx="14" fill="#284966"/><text x="76" y="348" class="n">production</text><text x="76" y="376" class="d">override</text><rect x="330" y="194" width="172" height="152" rx="18" fill="#2496ed"/><text x="367" y="238" class="n" fill="#fff">api</text><text x="352" y="272" class="d" fill="#fff">health check</text><text x="352" y="300" class="d" fill="#fff">memory limit</text><g fill="none" stroke="#2496ed" stroke-width="3" marker-end="url(#a)"><path d="M228 174H290V232H318"/><path d="M228 354H290V308H318"/></g></g><text x="100" y="820" class="d">devopsvn.tech</text></svg>