<svg xmlns="http://www.w3.org/2000/svg" width="1600" height="900" viewBox="0 0 1600 900" role="img" aria-label="Docker Advanced Chapter 1 cover showing a BuildKit build that uses temporary cache and secret inputs to create a container image."><defs><marker id="a" viewBox="0 0 10 10" refX="8" refY="5" markerWidth="5" markerHeight="5" orient="auto"><path d="M0 0L10 5 0 10z" fill="#2496ed"/></marker><style>.k{font-family:Arial,sans-serif;font-size:22px;font-weight:700;letter-spacing:4px;fill:#2496ed}.t{font-family:Arial,sans-serif;font-size:72px;font-weight:800;fill:#f7f9fb}.s{font-family:Arial,sans-serif;font-size:28px;fill:#aebdcd}.n{font-family:Arial,sans-serif;font-size:21px;font-weight:700;fill:#dce8f5}.d{font-family:Menlo,monospace;font-size:17px;fill:#aebdcd}</style></defs><rect width="1600" height="900" fill="#0d1117"/><path d="M860 0V900" stroke="#263545" stroke-width="2"/><text x="100" y="120" class="k">DOCKER ADVANCED</text><text x="100" y="156" class="k">CHAPTER 01</text><text x="100" y="380" class="t">Build Faster</text><text x="100" y="468" class="t">Build Safer</text><text x="100" y="570" class="s">Cache downloads. Mount secrets once.</text><g transform="translate(980 180)"><rect width="500" height="520" rx="24" fill="#12202f" stroke="#2496ed" stroke-width="3"/><text x="42" y="58" class="k" font-size="16">BUILDKIT</text><rect x="44" y="112" width="176" height="100" rx="14" fill="#1b3044" stroke="#4a6b88" stroke-width="2"/><text x="70" y="152" class="n">npm cache</text><text x="70" y="182" class="d">temporary</text><rect x="44" y="310" width="176" height="100" rx="14" fill="#1b3044" stroke="#4a6b88" stroke-width="2"/><text x="70" y="350" class="n">.npmrc</text><text x="70" y="380" class="d">secret mount</text><rect x="292" y="198" width="160" height="142" rx="18" fill="#2496ed"/><text x="319" y="254" class="n" fill="#fff">npm ci</text><text x="319" y="286" class="d" fill="#fff">one step</text><path d="M220 162H280V244" fill="none" stroke="#2496ed" stroke-width="3" marker-end="url(#a)"/><path d="M220 360H280V294" fill="none" stroke="#2496ed" stroke-width="3" marker-end="url(#a)"/><rect x="292" y="394" width="160" height="76" rx="14" fill="#dce8f5"/><text x="317" y="440" class="n" fill="#12202f">app image</text><path d="M372 340V382" fill="none" stroke="#2496ed" stroke-width="3" marker-end="url(#a)"/></g><text x="100" y="820" class="d">devopsvn.tech</text></svg>