<svg xmlns="http://www.w3.org/2000/svg" width="1600" height="900" viewBox="0 0 1600 900" role="img" aria-label="Docker Advanced Chapter 5 cover showing an image tag resolved to an immutable digest before deployment."><defs><marker id="a" viewBox="0 0 10 10" refX="8" refY="5" markerWidth="5" markerHeight="5" orient="auto"><path d="M0 0L10 5 0 10z" fill="#2496ed"/></marker><style>.k{font-family:Arial,sans-serif;font-size:22px;font-weight:700;letter-spacing:4px;fill:#2496ed}.t{font-family:Arial,sans-serif;font-size:70px;font-weight:800;fill:#f7f9fb}.s{font-family:Arial,sans-serif;font-size:28px;fill:#aebdcd}.n{font-family:Arial,sans-serif;font-size:21px;font-weight:700;fill:#dce8f5}.d{font-family:Menlo,monospace;font-size:16px;fill:#aebdcd}</style></defs><rect width="1600" height="900" fill="#0d1117"/><path d="M860 0V900" stroke="#263545" stroke-width="2"/><text x="100" y="120" class="k">DOCKER ADVANCED</text><text x="100" y="156" class="k">CHAPTER 05</text><text x="100" y="380" class="t">Deploy by</text><text x="100" y="468" class="t">Image Digest</text><text x="100" y="570" class="s">Know the exact image that will run.</text><g transform="translate(950 190)"><rect width="580" height="500" rx="24" fill="#12202f" stroke="#263f57" stroke-width="3"/><text x="48" y="58" class="k" font-size="16">RELEASE CONTRACT</text><rect x="52" y="194" width="126" height="92" rx="14" fill="#284966"/><text x="78" y="232" class="n">tag</text><text x="69" y="260" class="d">v1.4.0</text><rect x="224" y="154" width="152" height="172" rx="18" fill="#2496ed"/><text x="256" y="206" class="n" fill="#fff">registry</text><text x="244" y="246" class="d" fill="#fff">sha256</text><text x="244" y="274" class="d" fill="#fff">ab12...</text><rect x="422" y="194" width="126" height="92" rx="14" fill="#dce8f5"/><text x="440" y="232" class="n" fill="#12202f">deploy</text><text x="438" y="260" class="d" fill="#12202f">exact image</text><g fill="none" stroke="#2496ed" stroke-width="3" marker-end="url(#a)"><path d="M178 240H212"/><path d="M376 240H410"/></g></g><text x="100" y="820" class="d">devopsvn.tech</text></svg>